<?xml version="1.0" encoding="utf-8"?>
<!-- Generator: Adobe Illustrator 22.0.0, SVG Export Plug-In . SVG Version: 6.00 Build 0)  -->
<svg version="1.1" id="Layer_1" xmlns="http://www.w3.org/2000/svg" xmlns:xlink="http://www.w3.org/1999/xlink" x="0px" y="0px"
	 viewBox="0 0 156.4 64.3" style="enable-background:new 0 0 156.4 64.3;" xml:space="preserve">
<style type="text/css">
	.st0{fill:#FFFFFF;}
</style>
<path class="st0" d="M42.5,30.8h-1.6l-0.5,2.5h-2.5l-0.3,1.6H40l-0.5,2.5h1.6l0.5-2.5h2.5l0.3-1.6H42L42.5,30.8z M33,26.4
	c-1.4,0-2.6,0.4-3.5,1.1c-0.9,0.7-1.5,1.6-1.7,2.6c-0.1,0.5-0.1,0.9,0,1.5l0,0c0.1,0.5,0.4,1,1,1.5c-1.5,0.6-2.6,2-2.9,3.6
	c-0.3,1.2-0.1,2.2,0.6,3c0.6,0.8,1.8,1.3,3.3,1.3s2.9-0.4,4-1.3c1.1-0.8,1.7-1.9,2-3c0.3-1.6-0.1-2.9-1.3-3.7c1.5-0.8,2.1-2,2.2-2.9
	c0.2-1,0-1.9-0.6-2.6C35.5,26.8,34.5,26.4,33,26.4z M32.9,36.5c-0.3,1.4-1.2,2.2-2.5,2.2s-1.9-0.8-1.6-2.2c0.3-1.4,1.3-2.2,2.5-2.2
	S33.2,35.1,32.9,36.5z M34,30.4c-0.2,1-1,1.8-2.2,1.8c-1.1,0-1.6-0.7-1.4-1.8c0.2-1.1,1-1.8,2.2-1.8C33.7,28.7,34.2,29.3,34,30.4z
	 M30.9,13.9c-11,0-20,9-20,20s9,20,20,20s20-9,20-20S41.9,13.9,30.9,13.9z M30.9,51.5c-9.7,0-17.6-7.9-17.6-17.6s7.9-17.6,17.6-17.6
	s17.6,7.9,17.6,17.6S40.6,51.5,30.9,51.5z M17.3,29C17.3,29,17.3,29,17.3,29L17.3,29L17.3,29z M21.5,27c-0.2,0.4-0.5,0.8-0.8,1
	c-0.4,0.4-0.9,0.6-1.5,0.7c-0.4,0.1-1,0.1-1.9,0.2l-0.4,1.9h3.3l-2.1,9.8H21l3-14.2h-2.3C21.7,26.6,21.6,26.8,21.5,27z M63.7,26.7
	h1.2c0.9,0,1.5,0,1.9-0.1c0.3-0.1,0.7-0.2,1-0.4c0.3-0.2,0.6-0.5,0.8-0.9c0.2-0.4,0.3-0.9,0.3-1.4c0-0.7-0.2-1.3-0.5-1.8
	c-0.4-0.5-0.8-0.8-1.3-0.9c-0.3-0.1-1.1-0.1-2.2-0.1h-3v9.3h1.9L63.7,26.7L63.7,26.7z M63.7,22.5h0.9c0.7,0,1.1,0,1.4,0.1
	c0.3,0.1,0.6,0.2,0.8,0.4c0.2,0.2,0.3,0.5,0.3,0.8c0,0.3-0.1,0.5-0.2,0.7c-0.1,0.2-0.3,0.4-0.6,0.5c-0.2,0.1-0.7,0.1-1.5,0.1h-1
	L63.7,22.5L63.7,22.5z M68,40.9c-0.3-0.3-0.6-0.5-1-0.8c0.8-0.1,1.4-0.4,1.8-0.9c0.4-0.5,0.6-1,0.6-1.7c0-0.5-0.1-1-0.4-1.5
	c-0.3-0.4-0.6-0.7-1.1-0.9c-0.4-0.2-1.2-0.3-2.2-0.3h-4v9.3h1.9v-3.9h0.4c0.4,0,0.7,0,0.9,0.1c0.2,0.1,0.4,0.2,0.6,0.4
	c0.2,0.2,0.5,0.6,1,1.4l1.4,2h2.2l-1.1-1.8C68.6,41.7,68.2,41.2,68,40.9z M65.1,38.9h-1.4v-2.4h1.5c0.8,0,1.2,0,1.4,0
	c0.3,0.1,0.5,0.2,0.7,0.4c0.2,0.2,0.3,0.4,0.3,0.8c0,0.3-0.1,0.5-0.2,0.7s-0.3,0.3-0.5,0.4C66.6,38.8,66,38.9,65.1,38.9z M72.3,20.9
	h-1.8v9.3h1.8V20.9z M76.1,38.3c-0.6-0.7-1.4-1-2.4-1c-0.9,0-1.6,0.3-2.2,0.9c-0.6,0.6-0.9,1.5-0.9,2.6c0,0.9,0.2,1.7,0.7,2.3
	c0.6,0.8,1.4,1.1,2.6,1.1c0.7,0,1.4-0.2,1.9-0.5c0.5-0.3,0.9-0.8,1.1-1.5l-1.8-0.3c-0.1,0.3-0.2,0.6-0.4,0.7S74.2,43,74,43
	c-0.4,0-0.8-0.1-1-0.4c-0.3-0.3-0.4-0.7-0.4-1.2H77C77,40,76.7,39,76.1,38.3z M72.5,40.3c0-0.5,0.1-0.9,0.4-1.2
	c0.3-0.3,0.6-0.4,1-0.4c0.4,0,0.7,0.1,0.9,0.4c0.3,0.3,0.4,0.7,0.4,1.2L72.5,40.3L72.5,40.3z M112.6,40c-0.9-0.2-1.5-0.4-1.7-0.5
	c-0.1-0.1-0.2-0.2-0.2-0.3c0-0.1,0.1-0.3,0.2-0.4c0.2-0.1,0.5-0.2,1-0.2c0.4,0,0.7,0.1,0.9,0.2s0.3,0.3,0.4,0.6l1.7-0.3
	c-0.2-0.6-0.5-1-0.9-1.3c-0.4-0.3-1.1-0.5-2.1-0.5c-1,0-1.7,0.2-2.1,0.6c-0.5,0.4-0.7,0.9-0.7,1.5c0,0.6,0.3,1.2,0.8,1.5
	c0.4,0.3,1.3,0.6,2.7,0.9c0.3,0.1,0.5,0.2,0.6,0.2c0.1,0.1,0.1,0.2,0.1,0.3c0,0.2-0.1,0.4-0.2,0.5c-0.2,0.2-0.6,0.3-1,0.3
	c-0.4,0-0.7-0.1-1-0.3s-0.4-0.4-0.5-0.8l-1.8,0.3c0.2,0.6,0.5,1.1,1.1,1.5c0.5,0.4,1.3,0.6,2.2,0.6c1,0,1.8-0.2,2.3-0.7
	s0.8-1,0.8-1.6c0-0.6-0.2-1-0.6-1.3C114.2,40.5,113.5,40.2,112.6,40L112.6,40z M124,37.3c-0.8,0-1.4,0.3-2,0.9v-3.4h-1.8v9.3h1.7v-1
	c0.3,0.4,0.6,0.7,1,0.9c0.4,0.2,0.8,0.3,1.1,0.3c0.8,0,1.4-0.3,2-0.9c0.5-0.6,0.8-1.5,0.8-2.7c0-1.1-0.3-2-0.8-2.6
	C125.5,37.6,124.8,37.3,124,37.3z M124.6,42.5c-0.3,0.3-0.6,0.5-1,0.5c-0.5,0-0.9-0.2-1.2-0.7c-0.2-0.3-0.3-0.9-0.3-1.5
	c0-0.7,0.1-1.2,0.4-1.5c0.3-0.3,0.6-0.5,1.1-0.5c0.4,0,0.8,0.2,1.1,0.5c0.3,0.3,0.4,0.9,0.4,1.7C125,41.6,124.9,42.1,124.6,42.5z
	 M116.7,44.2h1.8v-6.7h-1.8V44.2z M116.7,36.6h1.8v-1.6h-1.8V36.6z M136.1,37.5l-1.6,4.8l-1.6-4.8H131l2.6,6.8
	c-0.1,0.4-0.3,0.7-0.5,0.9c-0.2,0.2-0.5,0.4-0.9,0.4c-0.2,0-0.5,0-0.8-0.1l0.2,1.4c0.3,0.1,0.7,0.1,1,0.1c0.3,0,0.6,0,0.9-0.1
	s0.5-0.2,0.7-0.3c0.2-0.1,0.3-0.3,0.5-0.5c0.1-0.2,0.3-0.5,0.4-0.9l0.4-1.2l2.4-6.5H136.1z M128.3,44.2h1.8v-9.3h-1.8V44.2z
	 M96.7,37.3c-0.7,0-1.3,0.1-1.8,0.4s-0.9,0.7-1.2,1.3c-0.3,0.6-0.4,1.1-0.4,1.7c0,0.8,0.1,1.4,0.4,2c0.3,0.5,0.7,0.9,1.3,1.2
	c0.6,0.3,1.2,0.4,1.8,0.4c1,0,1.8-0.3,2.5-1s1-1.5,1-2.5c0-1-0.3-1.8-1-2.5C98.5,37.7,97.7,37.3,96.7,37.3z M97.8,42.4
	c-0.3,0.4-0.7,0.5-1.2,0.5s-0.9-0.2-1.2-0.5C95.2,42,95,41.5,95,40.9s0.2-1.2,0.5-1.5c0.3-0.4,0.7-0.5,1.2-0.5s0.9,0.2,1.2,0.5
	c0.3,0.4,0.5,0.9,0.5,1.5C98.3,41.5,98.1,42,97.8,42.4z M81.5,40c-0.9-0.2-1.5-0.4-1.7-0.5c-0.1-0.1-0.2-0.2-0.2-0.3
	c0-0.1,0.1-0.3,0.2-0.4c0.2-0.1,0.5-0.2,1-0.2c0.4,0,0.7,0.1,0.9,0.2s0.3,0.3,0.4,0.6l1.7-0.3c-0.2-0.6-0.5-1-0.9-1.3
	c-0.4-0.3-1.1-0.5-2.1-0.5c-1,0-1.7,0.2-2.1,0.6c-0.5,0.4-0.7,0.9-0.7,1.5c0,0.6,0.3,1.2,0.8,1.5c0.4,0.3,1.3,0.6,2.7,0.9
	c0.3,0.1,0.5,0.2,0.6,0.2c0.1,0.1,0.1,0.2,0.1,0.3c0,0.2-0.1,0.4-0.2,0.5c-0.2,0.2-0.6,0.3-1,0.3c-0.4,0-0.7-0.1-1-0.3
	s-0.4-0.4-0.5-0.8l-1.8,0.3c0.2,0.6,0.5,1.1,1.1,1.5c0.5,0.4,1.3,0.6,2.2,0.6c1,0,1.8-0.2,2.3-0.7s0.8-1,0.8-1.6
	c0-0.6-0.2-1-0.6-1.3C83.2,40.5,82.5,40.2,81.5,40L81.5,40z M85.6,23.5L84,28.3l-1.6-4.8h-1.9l2.6,6.8c-0.1,0.4-0.3,0.7-0.5,0.9
	s-0.5,0.4-0.9,0.4c-0.2,0-0.5,0-0.8-0.1l0.2,1.4c0.3,0.1,0.7,0.1,1,0.1c0.3,0,0.6,0,0.9-0.1c0.3-0.1,0.5-0.2,0.7-0.3
	c0.2-0.1,0.3-0.3,0.5-0.5c0.1-0.2,0.3-0.5,0.4-0.9L85,30l2.4-6.5C87.4,23.5,85.6,23.5,85.6,23.5z M78,29.7c0.1,0.2,0.1,0.4,0.2,0.5
	h1.8c-0.2-0.3-0.3-0.6-0.3-0.9c-0.1-0.3-0.1-0.7-0.1-1.3l0-2.1c0-0.8-0.1-1.3-0.2-1.6c-0.2-0.3-0.4-0.5-0.8-0.7
	c-0.4-0.2-1-0.3-1.8-0.3c-0.9,0-1.5,0.2-2,0.5c-0.4,0.3-0.8,0.8-0.9,1.4l1.6,0.3c0.1-0.3,0.3-0.5,0.4-0.7s0.4-0.2,0.7-0.2
	c0.5,0,0.8,0.1,1,0.2c0.2,0.1,0.3,0.4,0.3,0.7v0.2c-0.3,0.1-0.9,0.3-1.7,0.4c-0.6,0.1-1.1,0.3-1.4,0.4c-0.3,0.2-0.6,0.4-0.8,0.7
	c-0.2,0.3-0.3,0.6-0.3,1c0,0.6,0.2,1.1,0.6,1.4c0.4,0.4,0.9,0.6,1.6,0.6c0.4,0,0.8-0.1,1.1-0.2c0.3-0.1,0.7-0.4,1-0.7
	C78,29.5,78,29.6,78,29.7L78,29.7z M77.8,27.3c0,0.4,0,0.7-0.1,0.9c-0.1,0.2-0.2,0.4-0.4,0.6c-0.3,0.2-0.6,0.3-0.9,0.3
	c-0.3,0-0.5-0.1-0.7-0.3c-0.2-0.2-0.3-0.4-0.3-0.6c0-0.3,0.1-0.5,0.3-0.6c0.2-0.1,0.5-0.2,1-0.3c0.5-0.1,0.9-0.2,1.1-0.3L77.8,27.3
	L77.8,27.3z M89.4,37.3c-0.4,0-0.9,0.1-1.2,0.3c-0.4,0.2-0.7,0.5-0.9,0.8v-1h-1.7v9.3h1.8v-3.4c0.3,0.4,0.7,0.6,1,0.8s0.6,0.2,1,0.2
	c0.8,0,1.4-0.3,2-0.9c0.6-0.6,0.8-1.5,0.8-2.6c0-1.1-0.3-2-0.8-2.6S90.1,37.3,89.4,37.3z M89.9,42.5c-0.3,0.3-0.6,0.5-1,0.5
	c-0.4,0-0.8-0.2-1.1-0.5c-0.3-0.4-0.5-0.9-0.5-1.7c0-0.7,0.1-1.2,0.4-1.5c0.3-0.3,0.7-0.5,1.1-0.5c0.4,0,0.8,0.2,1.1,0.5
	c0.3,0.3,0.4,0.9,0.4,1.6C90.4,41.6,90.2,42.1,89.9,42.5z M107.2,38.1c-0.2-0.2-0.4-0.4-0.7-0.5c-0.3-0.1-0.7-0.2-1.1-0.2
	c-0.9,0-1.6,0.4-2.2,1.1v-1h-1.7v6.7h1.8v-3.1c0-0.8,0-1.3,0.1-1.5s0.3-0.5,0.5-0.7c0.2-0.2,0.5-0.3,0.8-0.3c0.2,0,0.4,0.1,0.6,0.2
	c0.2,0.1,0.3,0.3,0.4,0.5c0.1,0.2,0.1,0.7,0.1,1.4v3.4h1.8V40c0-0.5,0-0.9-0.1-1.2C107.5,38.6,107.4,38.3,107.2,38.1z"/>
</svg>
