<?xml version="1.0" encoding="utf-8"?>
<!-- Generator: Adobe Illustrator 22.0.0, SVG Export Plug-In . SVG Version: 6.00 Build 0)  -->
<svg version="1.1" xmlns="http://www.w3.org/2000/svg" xmlns:xlink="http://www.w3.org/1999/xlink" x="0px" y="0px"
	 viewBox="0 0 267.8 129.9" style="enable-background:new 0 0 267.8 129.9;" xml:space="preserve">
<style type="text/css">
	.st0{display:none;}
	.st1{display:inline;}
	.st2{fill:url(#SVGID_1_);}
	.st3{fill:url(#SVGID_2_);}
	.st4{fill:url(#SVGID_3_);}
	.st5{fill:url(#SVGID_4_);}
	.st6{fill:url(#SVGID_5_);}
	.st7{fill:url(#SVGID_6_);}
	.st8{fill:url(#SVGID_7_);}
	.st9{fill:#F26522;}
</style>
<g id="BG" class="st0">
	<rect y="-71.5" class="st1" width="267.8" height="272.9"/>
</g>
<g id="Layer_1">
	<g>
		<linearGradient id="SVGID_1_" gradientUnits="userSpaceOnUse" x1="206.978" y1="-12.0381" x2="206.978" y2="93.074">
			<stop  offset="0" style="stop-color:#FFF100"/>
			<stop  offset="7.031006e-02" style="stop-color:#FBC40C"/>
			<stop  offset="0.1523" style="stop-color:#F69718"/>
			<stop  offset="0.2254" style="stop-color:#F37521"/>
			<stop  offset="0.286" style="stop-color:#F16126"/>
			<stop  offset="0.3268" style="stop-color:#F05A28"/>
			<stop  offset="0.3699" style="stop-color:#F26A24"/>
			<stop  offset="0.517" style="stop-color:#F69A17"/>
			<stop  offset="0.6566" style="stop-color:#FAC00D"/>
			<stop  offset="0.7852" style="stop-color:#FDDB06"/>
			<stop  offset="0.8988" style="stop-color:#FEEB02"/>
			<stop  offset="0.9853" style="stop-color:#FFF100"/>
		</linearGradient>
		<path class="st2" d="M225.9,68.9c-0.7-1.2-1.6-2.3-2.8-3.1c0.7-0.7,1.3-1.5,1.8-2.4c0.6-1.2,0.9-2.5,0.9-3.9
			c0-1.7-0.4-3.2-1.1-4.5c-0.8-1.3-1.8-2.4-3.2-3.2c-2.7-1.5-6.4-1.5-9,0c-1.4,0.8-2.4,1.9-3.2,3.2c-0.8,1.4-1.2,2.9-1.2,4.5
			c0,1.4,0.3,2.7,0.9,3.8c0.4,0.9,1,1.7,1.8,2.4c-1.1,0.8-2.1,1.9-2.8,3.2c-0.5,0.9-0.8,1.8-1,2.8c-0.2-1-0.5-2-1-2.9
			c-0.7-1.2-1.6-2.3-2.8-3.1c0.7-0.7,1.3-1.5,1.8-2.4c0.6-1.2,0.9-2.5,0.9-3.9c0-1.7-0.4-3.2-1.1-4.5c-0.8-1.3-1.8-2.4-3.2-3.2
			c-2.7-1.5-6.4-1.5-9,0c-1.4,0.8-2.4,1.9-3.2,3.2c-0.8,1.4-1.2,2.9-1.2,4.5c0,1.4,0.3,2.7,0.9,3.8c0.4,0.9,1,1.7,1.8,2.4
			c-1.1,0.8-2.1,1.9-2.8,3.2c-0.8,1.5-1.3,3.2-1.3,5.1c0,2,0.4,3.8,1.3,5.4c0.9,1.6,2.1,2.9,3.7,3.8c1.6,0.9,3.3,1.4,5.2,1.4
			c1.9,0,3.7-0.5,5.2-1.4c1.6-0.9,2.8-2.3,3.7-3.9c0.5-1,0.9-2,1.1-3.1c0.2,1.1,0.6,2.2,1.1,3.2c0.9,1.6,2.1,2.9,3.7,3.8
			c1.6,0.9,3.3,1.4,5.2,1.4c1.9,0,3.7-0.5,5.2-1.4c1.6-0.9,2.8-2.3,3.7-3.9c0.9-1.6,1.3-3.5,1.3-5.4
			C227.2,72.1,226.8,70.4,225.9,68.9 M194.5,56.9c0.7-0.7,1.5-1,2.5-1c1,0,1.8,0.3,2.5,1c0.7,0.7,1,1.5,1,2.6c0,1.1-0.3,2.1-1,2.8
			c-0.7,0.8-1.4,1.1-2.4,1.1c-1,0-1.8-0.4-2.5-1.1c-0.7-0.7-1-1.6-1-2.7C193.5,58.5,193.9,57.6,194.5,56.9 M201.1,76.8
			c-0.4,0.9-1,1.5-1.7,2c-1.4,1-3.4,1-4.8,0c-0.7-0.5-1.3-1.1-1.7-2c-0.4-0.8-0.6-1.8-0.6-2.8c0-1.5,0.4-2.8,1.4-3.8
			c0.9-1,2-1.5,3.4-1.5c1.4,0,2.5,0.5,3.4,1.4c0.9,1,1.4,2.2,1.4,3.7C201.8,75,201.5,76,201.1,76.8 M214.5,56.9c0.7-0.7,1.5-1,2.5-1
			c1,0,1.8,0.3,2.4,1c0.7,0.7,1,1.5,1,2.6c0,1.1-0.3,2.1-1,2.8c-0.7,0.8-1.4,1.1-2.4,1.1c-1,0-1.8-0.4-2.5-1.1c-0.7-0.7-1-1.6-1-2.7
			C213.5,58.5,213.9,57.6,214.5,56.9 M221.1,76.8c-0.4,0.9-1,1.5-1.7,2c-1.4,1-3.4,1-4.8,0c-0.7-0.5-1.3-1.1-1.7-2
			c-0.4-0.8-0.6-1.8-0.6-2.8c0-1.5,0.4-2.8,1.4-3.8c0.9-1,2-1.5,3.4-1.5c1.4,0,2.5,0.5,3.4,1.4c0.9,1,1.4,2.2,1.4,3.7
			C221.8,75,221.5,76,221.1,76.8"/>
		<linearGradient id="SVGID_2_" gradientUnits="userSpaceOnUse" x1="124.9381" y1="-12.0381" x2="124.9381" y2="93.074">
			<stop  offset="0" style="stop-color:#FFF100"/>
			<stop  offset="7.031006e-02" style="stop-color:#FBC40C"/>
			<stop  offset="0.1523" style="stop-color:#F69718"/>
			<stop  offset="0.2254" style="stop-color:#F37521"/>
			<stop  offset="0.286" style="stop-color:#F16126"/>
			<stop  offset="0.3268" style="stop-color:#F05A28"/>
			<stop  offset="0.3699" style="stop-color:#F26A24"/>
			<stop  offset="0.517" style="stop-color:#F69A17"/>
			<stop  offset="0.6566" style="stop-color:#FAC00D"/>
			<stop  offset="0.7852" style="stop-color:#FDDB06"/>
			<stop  offset="0.8988" style="stop-color:#FEEB02"/>
			<stop  offset="0.9853" style="stop-color:#FFF100"/>
		</linearGradient>
		<path class="st3" d="M131.5,62.1c-1.7-1.1-3.7-1.6-5.8-1.6c-1.7,0-3.3,0.4-4.8,1.1c-1,0.5-1.8,1-2.6,1.7v-9.6c0-0.8-0.3-1.5-0.8-2
			c-1-1-2.9-1-4,0c-0.5,0.5-0.8,1.2-0.8,2v19c0,2.3,0.5,4.4,1.6,6.2c1.1,1.9,2.5,3.3,4.4,4.4c1.8,1.1,3.9,1.6,6.1,1.6
			c2.2,0,4.3-0.5,6.2-1.6c1.9-1.1,3.3-2.5,4.4-4.4c1-1.9,1.6-3.9,1.6-6.2c0-2.3-0.5-4.3-1.5-6.2C134.6,64.7,133.2,63.2,131.5,62.1
			 M128.3,78.9c-1,0.6-2.1,0.9-3.4,0.9c-1.3,0-2.4-0.3-3.4-0.9c-1-0.6-1.8-1.5-2.4-2.6c-0.6-1.1-0.9-2.3-0.9-3.7
			c0-1.4,0.3-2.6,0.9-3.7c0.6-1.1,1.4-1.9,2.4-2.5c1-0.6,2.2-0.9,3.4-0.9c1.3,0,2.4,0.3,3.4,0.9c1,0.6,1.8,1.5,2.4,2.5
			c0.6,1.1,0.9,2.3,0.9,3.7s-0.3,2.6-0.9,3.7C130.2,77.5,129.4,78.3,128.3,78.9"/>
		<linearGradient id="SVGID_3_" gradientUnits="userSpaceOnUse" x1="148.9358" y1="-12.0381" x2="148.9358" y2="93.074">
			<stop  offset="0" style="stop-color:#FFF100"/>
			<stop  offset="7.031006e-02" style="stop-color:#FBC40C"/>
			<stop  offset="0.1523" style="stop-color:#F69718"/>
			<stop  offset="0.2254" style="stop-color:#F37521"/>
			<stop  offset="0.286" style="stop-color:#F16126"/>
			<stop  offset="0.3268" style="stop-color:#F05A28"/>
			<stop  offset="0.3699" style="stop-color:#F26A24"/>
			<stop  offset="0.517" style="stop-color:#F69A17"/>
			<stop  offset="0.6566" style="stop-color:#FAC00D"/>
			<stop  offset="0.7852" style="stop-color:#FDDB06"/>
			<stop  offset="0.8988" style="stop-color:#FEEB02"/>
			<stop  offset="0.9853" style="stop-color:#FFF100"/>
		</linearGradient>
		<path class="st4" d="M152.4,79.3H151c-0.7,0-1.3-0.3-1.7-0.9c-0.5-0.6-0.8-1.4-0.8-2.4v-9.6h2.9c0.7,0,1.4-0.2,1.9-0.7
			c0.5-0.5,0.7-1,0.7-1.7c0-0.7-0.3-1.3-0.7-1.8c-0.5-0.4-1.1-0.7-1.9-0.7h-2.9v-7.4c0-0.8-0.3-1.4-0.8-2c-1-1-2.9-1-3.9,0
			c-0.5,0.5-0.8,1.2-0.8,2v7.4v4.9V76c0,1.6,0.3,3.1,1,4.4c0.7,1.3,1.7,2.4,2.9,3.1c1.2,0.8,2.6,1.2,4.1,1.2h0.7
			c0.9,0,1.6-0.2,2.2-0.7c0.6-0.5,0.9-1.2,0.9-2c0-0.8-0.2-1.4-0.7-1.9C153.7,79.6,153.1,79.3,152.4,79.3"/>
		<linearGradient id="SVGID_4_" gradientUnits="userSpaceOnUse" x1="170.8562" y1="-12.0381" x2="170.8562" y2="93.074">
			<stop  offset="0" style="stop-color:#FFF100"/>
			<stop  offset="7.031006e-02" style="stop-color:#FBC40C"/>
			<stop  offset="0.1523" style="stop-color:#F69718"/>
			<stop  offset="0.2254" style="stop-color:#F37521"/>
			<stop  offset="0.286" style="stop-color:#F16126"/>
			<stop  offset="0.3268" style="stop-color:#F05A28"/>
			<stop  offset="0.3699" style="stop-color:#F26A24"/>
			<stop  offset="0.517" style="stop-color:#F69A17"/>
			<stop  offset="0.6566" style="stop-color:#FAC00D"/>
			<stop  offset="0.7852" style="stop-color:#FDDB06"/>
			<stop  offset="0.8988" style="stop-color:#FEEB02"/>
			<stop  offset="0.9853" style="stop-color:#FFF100"/>
		</linearGradient>
		<path class="st5" d="M181.5,66.5c-1-1.9-2.3-3.3-4.1-4.4c-1.7-1.1-3.7-1.6-5.8-1.6c-1.7,0-3.3,0.4-4.8,1.1c-1,0.5-1.8,1-2.6,1.7
			v-9.6c0-0.8-0.3-1.5-0.8-2c-1-1-2.9-1-4,0c-0.5,0.5-0.8,1.2-0.8,2v19c0,2.3,0.5,4.4,1.6,6.2c1.1,1.9,2.5,3.3,4.4,4.4
			c1.8,1.1,3.9,1.6,6.1,1.6c2.2,0,4.3-0.5,6.2-1.6c1.9-1.1,3.3-2.5,4.4-4.4c1-1.9,1.6-3.9,1.6-6.2C183,70.4,182.5,68.4,181.5,66.5
			 M174.3,78.9c-1,0.6-2.1,0.9-3.4,0.9c-1.3,0-2.4-0.3-3.4-0.9c-1-0.6-1.8-1.5-2.4-2.6c-0.6-1.1-0.9-2.3-0.9-3.7
			c0-1.4,0.3-2.6,0.9-3.7c0.6-1.1,1.4-1.9,2.4-2.5c1-0.6,2.2-0.9,3.4-0.9c1.3,0,2.4,0.3,3.4,0.9c1,0.6,1.8,1.5,2.4,2.5
			c0.6,1.1,0.9,2.3,0.9,3.7s-0.3,2.6-0.9,3.7C176.1,77.5,175.3,78.3,174.3,78.9"/>
	</g>
	<g>
		<linearGradient id="SVGID_5_" gradientUnits="userSpaceOnUse" x1="35.1219" y1="74.5712" x2="61.6487" y2="74.5712">
			<stop  offset="0" style="stop-color:#EE4036"/>
			<stop  offset="0.2262" style="stop-color:#F1642B"/>
			<stop  offset="0.725" style="stop-color:#FABD10"/>
			<stop  offset="1" style="stop-color:#FFF100"/>
		</linearGradient>
		<path class="st6" d="M60.7,95.6c-13.7-3.6-23.2-16-23.2-30.1c0-4.4,0.9-8.7,2.7-12.7c0.3-0.6,0-1.3-0.6-1.6
			c-0.6-0.3-1.3,0-1.6,0.6c-1.9,4.3-2.9,8.9-2.9,13.6c0,15.2,10.3,28.6,25,32.5c0.1,0,0.2,0,0.3,0c0.5,0,1-0.4,1.2-0.9
			C61.8,96.5,61.4,95.8,60.7,95.6z"/>
		<linearGradient id="SVGID_6_" gradientUnits="userSpaceOnUse" x1="75.7822" y1="74.1993" x2="102.2906" y2="74.1993">
			<stop  offset="0" style="stop-color:#EE4036"/>
			<stop  offset="0.2262" style="stop-color:#F1642B"/>
			<stop  offset="0.725" style="stop-color:#FABD10"/>
			<stop  offset="1" style="stop-color:#FFF100"/>
		</linearGradient>
		<path class="st7" d="M99.1,51.1c-0.3-0.6-1-0.9-1.6-0.6c-0.6,0.3-0.9,1-0.6,1.6c2,4.2,3,8.7,3,13.4c0,14.1-9.5,26.5-23.2,30.1
			c-0.6,0.2-1,0.8-0.9,1.5C76,97.6,76.5,98,77,98c0.1,0,0.2,0,0.3,0c14.7-3.9,25-17.2,25-32.5C102.3,60.5,101.2,55.6,99.1,51.1z"/>
		<linearGradient id="SVGID_7_" gradientUnits="userSpaceOnUse" x1="41.9747" y1="64.9563" x2="94.3938" y2="64.9563">
			<stop  offset="0" style="stop-color:#EE4036"/>
			<stop  offset="0.2262" style="stop-color:#F1642B"/>
			<stop  offset="0.725" style="stop-color:#FABD10"/>
			<stop  offset="1" style="stop-color:#FFF100"/>
		</linearGradient>
		<path class="st8" d="M82.1,86.5c2.8-0.7,5.4-2.4,7.4-4.9c2-2.5,3.2-5.4,3.3-8.2c0.1-3-0.9-5.5-2.9-7.1c-0.3-0.3-0.7-0.5-1.1-0.7
			c0.4-0.2,0.8-0.5,1.1-0.8c2-1.6,3-4.2,2.9-7.1c-0.1-2.8-1.3-5.8-3.3-8.2c-2-2.5-4.6-4.2-7.4-4.9c-2.9-0.7-5.6-0.2-7.6,1.4
			c-2,1.6-3,4.2-2.9,7.1c0.1,2.8,1.3,5.8,3.3,8.2c1,1.2,2.1,2.2,3.3,3h-8.3V34.4c8.6,0.3,16.7,4.2,22.4,10.7
			c0.4,0.5,1.2,0.6,1.7,0.1c0.5-0.4,0.6-1.2,0.1-1.7c-6.4-7.4-15.6-11.6-25.4-11.6c-10.4,0-20.1,4.7-26.5,12.9
			c-0.4,0.5-0.3,1.3,0.2,1.7c0.2,0.2,0.5,0.3,0.7,0.3c0.4,0,0.7-0.2,1-0.5c5.7-7.3,14.2-11.6,23.4-11.9v29.9h-8.9
			c1.2-0.8,2.3-1.8,3.3-3c2-2.5,3.2-5.4,3.3-8.2c0.1-3-0.9-5.5-2.9-7.1c-4-3.3-10.7-1.7-15,3.4c-4.2,5.2-4.4,12.1-0.4,15.4
			c0.4,0.3,0.7,0.5,1.1,0.8c-0.4,0.2-0.8,0.4-1.1,0.7c-4,3.3-3.8,10.2,0.4,15.4c2.7,3.3,6.5,5.2,9.9,5.2c1.9,0,3.6-0.6,5.1-1.7
			c2-1.6,3-4.2,2.9-7.1c-0.1-2.8-1.3-5.8-3.3-8.2c-1-1.2-2.1-2.2-3.3-3h8.9v30.1c0,0.7,0.5,1.2,1.2,1.2c0.7,0,1.2-0.5,1.2-1.2V66.7
			h8.3c-1.2,0.8-2.3,1.8-3.3,3c-2,2.5-3.2,5.4-3.3,8.2c-0.1,3,0.9,5.5,2.9,7.1c1.4,1.2,3.2,1.7,5.1,1.7
			C80.4,86.8,81.2,86.7,82.1,86.5z M49.2,50.9c2.3-2.8,5.3-4.3,8-4.3c1.3,0,2.6,0.4,3.6,1.2c1.4,1.1,2.1,3,2,5.2
			c-0.1,2.3-1.1,4.7-2.8,6.8c-1.7,2.1-3.9,3.5-6.1,4.1c-2.1,0.5-4.1,0.2-5.5-1C45.4,60.4,45.8,55.1,49.2,50.9z M60,71.2
			c1.7,2.1,2.7,4.5,2.8,6.8c0.1,2.2-0.6,4-2,5.2c-3,2.4-8.2,1-11.6-3.1c-3.4-4.2-3.8-9.5-0.8-12c1-0.8,2.2-1.2,3.6-1.2
			c0.6,0,1.2,0.1,1.9,0.2C56.1,67.7,58.3,69.2,60,71.2z M76.8,59.8c-1.7-2.1-2.7-4.5-2.8-6.8c-0.1-2.2,0.6-4,2-5.2
			c1-0.8,2.2-1.2,3.6-1.2c0.6,0,1.2,0.1,1.9,0.2c2.3,0.6,4.4,2,6.1,4.1c1.7,2.1,2.7,4.5,2.8,6.8c0.1,2.2-0.6,4-2,5.2
			c-1.4,1.1-3.3,1.5-5.5,1C80.7,63.3,78.5,61.8,76.8,59.8z M74.1,78c0.1-2.3,1.1-4.7,2.8-6.8c1.7-2.1,3.9-3.5,6.1-4.1
			c0.7-0.2,1.3-0.2,1.9-0.2c1.4,0,2.6,0.4,3.6,1.2c1.4,1.1,2.1,3,2,5.2c-0.1,2.3-1.1,4.7-2.8,6.8c-1.7,2.1-3.9,3.5-6.1,4.1
			c-2.1,0.5-4.1,0.2-5.5-1C74.7,82,74,80.2,74.1,78z"/>
	</g>
	<g>
		<path class="st9" d="M114,94.6v2.2h-0.8v-5.7c0.6,0,0.9,0,1.1,0c1.7,0,2.5,0.6,2.5,1.7c0,1.3-0.7,1.9-2.2,1.9
			C114.5,94.7,114.3,94.6,114,94.6z M114,91.8v2.1c0.3,0,0.5,0,0.5,0c1,0,1.5-0.4,1.5-1.1c0-0.7-0.5-1-1.6-1
			C114.4,91.8,114.2,91.8,114,91.8z"/>
		<path class="st9" d="M119.8,91.1h0.8V95c0,0.3,0.1,0.6,0.3,0.9s0.5,0.3,0.9,0.3c0.4,0,0.7-0.1,0.9-0.3s0.3-0.5,0.3-0.9v-3.9h0.8v4
			c0,0.6-0.2,1-0.5,1.4s-0.9,0.5-1.5,0.5c-0.6,0-1.1-0.2-1.5-0.5s-0.5-0.8-0.5-1.4V91.1z"/>
		<path class="st9" d="M130.2,96.8l-1.5-2.5c-0.2,0-0.5,0-0.8,0v2.5h-0.8v-5.7c0,0,0.2,0,0.6,0s0.7,0,0.8,0c1.4,0,2.1,0.5,2.1,1.6
			c0,0.4-0.1,0.7-0.3,1s-0.5,0.5-0.8,0.5l1.7,2.6H130.2z M127.9,91.8v1.9c0.2,0,0.4,0,0.5,0c0.5,0,0.8-0.1,1-0.2s0.3-0.4,0.3-0.8
			c0-0.3-0.1-0.6-0.3-0.7s-0.6-0.2-1.1-0.2C128.3,91.8,128.1,91.8,127.9,91.8z"/>
		<path class="st9" d="M134.6,91.8v1.6h1.9V94h-1.9v2.1h2.6v0.7h-3.4v-5.7h3.4v0.7H134.6z"/>
		<path class="st9" d="M148.3,91.3l-0.3,0.7c-0.2-0.2-0.6-0.3-1.2-0.3c-0.5,0-0.9,0.2-1.2,0.6s-0.5,1-0.5,1.7c0,0.7,0.2,1.2,0.5,1.6
			s0.7,0.6,1.2,0.6c0.5,0,0.9-0.2,1.2-0.6l0.4,0.6c-0.5,0.5-1,0.7-1.8,0.7c-0.7,0-1.3-0.3-1.8-0.8s-0.6-1.2-0.6-2.1
			c0-0.9,0.2-1.6,0.7-2.1s1.1-0.8,1.8-0.8C147.5,91,148,91.1,148.3,91.3z"/>
		<path class="st9" d="M154.7,96.8l-1.5-2.5c-0.2,0-0.5,0-0.8,0v2.5h-0.8v-5.7c0,0,0.2,0,0.6,0s0.7,0,0.8,0c1.4,0,2.1,0.5,2.1,1.6
			c0,0.4-0.1,0.7-0.3,1s-0.5,0.5-0.8,0.5l1.7,2.6H154.7z M152.3,91.8v1.9c0.2,0,0.4,0,0.5,0c0.5,0,0.8-0.1,1-0.2s0.3-0.4,0.3-0.8
			c0-0.3-0.1-0.6-0.3-0.7s-0.6-0.2-1.1-0.2C152.7,91.8,152.6,91.8,152.3,91.8z"/>
		<path class="st9" d="M159.8,94.3v2.6h-0.8v-2.6l-1.8-3.2h0.8l1.4,2.5l1.4-2.5h0.8L159.8,94.3z"/>
		<path class="st9" d="M165.2,94.6v2.2h-0.8v-5.7c0.6,0,0.9,0,1.1,0c1.7,0,2.5,0.6,2.5,1.7c0,1.3-0.7,1.9-2.2,1.9
			C165.7,94.7,165.5,94.6,165.2,94.6z M165.2,91.8v2.1c0.3,0,0.5,0,0.5,0c1,0,1.5-0.4,1.5-1.1c0-0.7-0.5-1-1.6-1
			C165.5,91.8,165.4,91.8,165.2,91.8z"/>
		<path class="st9" d="M173,91.8v5h-0.8v-5h-1.8v-0.7h4.5v0.7H173z"/>
		<path class="st9" d="M176.9,93.9c0-0.8,0.2-1.5,0.6-2.1s1-0.8,1.7-0.8c0.8,0,1.4,0.3,1.8,0.8s0.6,1.2,0.6,2.1
			c0,0.9-0.2,1.7-0.6,2.2s-1,0.8-1.8,0.8c-0.7,0-1.3-0.3-1.7-0.8S176.9,94.8,176.9,93.9z M177.8,93.9c0,0.7,0.1,1.2,0.4,1.6
			s0.6,0.7,1.1,0.7c0.5,0,0.9-0.2,1.2-0.6s0.4-1,0.4-1.7c0-1.5-0.5-2.2-1.6-2.2c-0.5,0-0.9,0.2-1.1,0.6S177.8,93.2,177.8,93.9z"/>
		<path class="st9" d="M193.1,91.5l-0.3,0.6c-0.4-0.3-0.8-0.4-1.2-0.4c-0.6,0-1.1,0.2-1.4,0.6s-0.5,1-0.5,1.7c0,0.7,0.2,1.2,0.5,1.6
			s0.8,0.6,1.4,0.6c0.4,0,0.8-0.1,1-0.4v-1.3h-0.8v-0.7h1.6v2.5c-0.2,0.2-0.5,0.3-0.9,0.4s-0.7,0.2-1.1,0.2c-0.8,0-1.4-0.3-1.9-0.8
			s-0.7-1.2-0.7-2.1c0-0.9,0.3-1.6,0.8-2.2s1.2-0.8,2-0.8C192.3,91,192.8,91.2,193.1,91.5z"/>
		<path class="st9" d="M199.9,96.8l-0.4-1.2h-2.1l-0.4,1.2h-0.9l2.3-5.8h0.2l2.2,5.8H199.9z M198.5,92.5l-0.9,2.5h1.7L198.5,92.5z"
			/>
		<path class="st9" d="M207.8,96.8l-0.7-3.7l-1.2,3.8h-0.2l-1.3-3.8l-0.7,3.7H203l1.1-5.7h0.4l1.4,4.2l1.3-4.2h0.4l1.2,5.7H207.8z"
			/>
		<path class="st9" d="M211.4,96.8v-5.7h0.8v5.7H211.4z"/>
		<path class="st9" d="M219.2,96.9l-3-4.2v4.1h-0.7v-5.7h0.3l2.9,4v-4h0.7v5.8H219.2z"/>
		<path class="st9" d="M226.7,91.5l-0.3,0.6c-0.4-0.3-0.8-0.4-1.2-0.4c-0.6,0-1.1,0.2-1.4,0.6s-0.5,1-0.5,1.7c0,0.7,0.2,1.2,0.5,1.6
			s0.8,0.6,1.4,0.6c0.4,0,0.8-0.1,1-0.4v-1.3h-0.8v-0.7h1.6v2.5c-0.2,0.2-0.5,0.3-0.9,0.4s-0.7,0.2-1.1,0.2c-0.8,0-1.4-0.3-1.9-0.8
			s-0.7-1.2-0.7-2.1c0-0.9,0.3-1.6,0.8-2.2s1.2-0.8,2-0.8C225.8,91,226.3,91.2,226.7,91.5z"/>
	</g>
</g>
</svg>
